<svg width="22" height="27" viewBox="0 0 22 27" fill="none" xmlns="http://www.w3.org/2000/svg">
<path d="M14.7783 4.25333C15.2823 3.67237 15.6667 2.99756 15.9092 2.26765C16.1518 1.53774 16.2477 0.767104 16.1916 0C14.6441 0.124916 13.2076 0.852741 12.1916 2.02667C11.7051 2.5893 11.3364 3.24384 11.1074 3.95153C10.8783 4.65921 10.7936 5.40566 10.8583 6.14667C11.6131 6.15296 12.3593 5.98546 13.0391 5.65714C13.7188 5.32883 14.3139 4.8485 14.7783 4.25333ZM18.1383 14.1733C18.1472 13.1517 18.4163 12.1491 18.9202 11.2603C19.4241 10.3714 20.1462 9.62568 21.0183 9.09333C20.4679 8.30032 19.7403 7.64644 18.8933 7.18357C18.0462 6.72069 17.1029 6.46154 16.1383 6.42667C14.0583 6.21333 12.1383 7.64 11.0316 7.64C9.92495 7.64 8.36495 6.45333 6.63161 6.48C5.49845 6.51733 4.39431 6.84771 3.42688 7.43892C2.45945 8.03012 1.66176 8.86197 1.11161 9.85333C-1.23505 13.9333 0.511614 20 2.85828 23.2933C3.92495 24.9067 5.25828 26.7333 7.01828 26.6667C8.77828 26.6 9.35161 25.5733 11.3916 25.5733C13.4316 25.5733 14.0583 26.6667 15.7916 26.6267C17.5249 26.5867 18.7516 24.9733 19.8716 23.36C20.665 22.1887 21.2848 20.9088 21.7116 19.56C20.6549 19.1094 19.7534 18.359 19.1183 17.4017C18.4833 16.4445 18.1426 15.3221 18.1383 14.1733Z" fill="black"/>
</svg>
