<svg width="27" height="28" viewBox="0 0 27 28" fill="none" xmlns="http://www.w3.org/2000/svg">
<path d="M13.7143 11.75H26.6607C26.8036 12.5476 26.875 13.3095 26.875 14.0357C26.875 16.619 26.3333 18.9256 25.25 20.9554C24.1667 22.9851 22.622 24.5714 20.6161 25.7143C18.6101 26.8571 16.3095 27.4286 13.7143 27.4286C11.8452 27.4286 10.0655 27.0685 8.375 26.3482C6.68452 25.628 5.22619 24.6548 4 23.4286C2.77381 22.2024 1.8006 20.744 1.08036 19.0536C0.360119 17.3631 0 15.5833 0 13.7143C0 11.8452 0.360119 10.0655 1.08036 8.375C1.8006 6.68452 2.77381 5.22619 4 4C5.22619 2.77381 6.68452 1.8006 8.375 1.08036C10.0655 0.360119 11.8452 0 13.7143 0C17.2857 0 20.3512 1.19643 22.9107 3.58929L19.1786 7.17857C17.7143 5.76191 15.8929 5.05357 13.7143 5.05357C12.1786 5.05357 10.7589 5.44048 9.45536 6.21429C8.15179 6.9881 7.11905 8.03869 6.35714 9.36607C5.59524 10.6935 5.21429 12.1429 5.21429 13.7143C5.21429 15.2857 5.59524 16.7351 6.35714 18.0625C7.11905 19.3899 8.15179 20.4405 9.45536 21.2143C10.7589 21.9881 12.1786 22.375 13.7143 22.375C14.75 22.375 15.7024 22.2321 16.5714 21.9464C17.4405 21.6607 18.1548 21.3036 18.7143 20.875C19.2738 20.4464 19.7619 19.9583 20.1786 19.4107C20.5952 18.8631 20.9018 18.3452 21.0982 17.8571C21.2946 17.369 21.4286 16.9048 21.5 16.4643H13.7143V11.75Z" fill="black"/>
</svg>
