<svg width="248" height="272" viewBox="0 0 248 272" fill="none" xmlns="http://www.w3.org/2000/svg">
<g clip-path="url(#clip0_95_844)">
<path d="M83.5875 198.777L116.67 177.542C114.98 174.94 113.326 176.393 111.104 176.442C101.036 176.661 77.6504 175.441 76.421 161.913C77.4805 141.267 75.0753 119.33 76.421 98.8365C77.3419 84.7942 86.3413 73.4969 97.3122 65.633C106.052 59.3697 116.433 55.4398 124.114 47.7012C126.246 49.2659 128.057 51.1214 130.212 52.6861C150.271 67.2425 170.21 72.6743 171.686 102.413C172.633 121.512 170.921 141.388 171.681 160.567C170.434 176.447 147.96 176.594 136.104 176.442C134.182 176.42 133.377 175.24 131.879 177.546L164.51 198.773H151.322L124.123 181.874L97.2273 198.773H83.5919L83.5875 198.777ZM164.953 147.365V98.8587C164.953 95.6309 162.329 89.0278 160.715 86.1085C152.842 71.8605 136.86 65.5436 124.051 56.7588C111.283 66.3528 93.9235 72.1289 86.3502 87.3156C85.3265 89.3721 83.1405 95.4253 83.1405 97.5175V146.918L90.0117 131.213C94.8534 124.194 102.637 122.191 109.745 118.351C112.503 123.626 115.105 128.656 120.555 131.629C124.463 133.757 124.985 133.265 128.616 130.922C133.301 127.905 136.363 123.389 138.37 118.288C147.356 122.687 156.276 125.656 160.558 135.433C162.065 138.875 162.789 142.644 164.171 146.131C164.358 146.61 164.3 147.459 164.948 147.361L164.953 147.365ZM159.141 155.408L152.609 145.224C141.871 145.885 131.16 149.806 124.047 158.086C116.764 149.931 106.285 145.778 95.448 145.103C94.84 145.09 94.688 145.532 94.3662 145.849C93.9727 146.243 88.9432 154.643 88.9477 155.18C101.457 158.725 114.091 163.732 123.662 172.812C134.007 164.452 146.203 158.43 159.141 155.403V155.408Z" fill="#14452F"/>
<path d="M121.033 76.8406C133.471 75.1328 142.819 85.1604 141.142 97.3965C140.637 101.098 138.281 102.614 137.771 104.308C137.262 106.002 137.552 110.701 137.172 113.097C136.22 119.11 132.568 126.022 126.957 128.812C124.033 130.265 123.738 130.292 120.832 128.669C115.588 125.736 111.936 118.838 110.97 113.048C110.554 110.563 110.872 106.503 110.304 104.326C110.089 103.508 108.949 102.538 108.547 101.612C103.862 90.9678 108.949 78.4948 121.033 76.8362V76.8406ZM126.506 93.7218C129.684 92.631 127.368 95.1924 126.957 91.6204C122.486 98.456 112.039 92.1213 112.182 101.966C112.204 103.66 113.496 110.987 114.873 111.828C117.095 113.178 119.504 110.281 121.257 109.709C127.154 107.782 129.434 112.901 132.778 111.854C135.487 111.01 135.858 102.855 135.098 100.544C133.815 96.641 129.013 96.1806 126.501 93.7218H126.506Z" fill="#14452F"/>
<path d="M116.628 43.1187C110 36.9325 112.333 25.8707 120.875 22.8679C121.043 22.8091 121.714 22.5389 121.505 22.9813C121.442 23.1156 120.819 23.6452 120.661 23.8215C117.647 27.1808 117.192 32.2939 119.523 36.1538C122.845 41.6556 130.337 42.9816 135.327 38.8445C135.499 38.7027 136.102 38.0728 136.196 38.0294C136.34 37.9622 136.468 38.0425 136.453 38.1979C136.436 38.3952 136.159 38.9878 136.063 39.2042C132.677 46.7827 122.736 48.8193 116.628 43.1187Z" fill="#14452F"/>
<path d="M122.874 43.7599H126.378L127.254 50.331H121.998L122.874 43.7599Z" fill="#14452F"/>
</g>
<path d="M122.303 237.246C122.258 235.722 121.086 234.325 120.958 232.83C120.673 229.556 123.549 226.131 126.884 226.078L145.352 229.864L144.428 233.071C143.437 233.003 140.019 233.731 139.591 234.58C138.683 236.375 140.29 236.961 141.739 237.171C144.233 237.524 152.997 237.547 155.295 236.998C158.322 236.27 160.665 231.689 163.226 231.614C165.246 231.553 166.794 233.776 168.483 234.956C171.961 237.374 174.627 237.734 178.893 237.254C181.431 236.968 182.4 235.744 182.302 233.251C182.009 225.658 180.184 217.014 179.336 209.323C179.23 208.377 179.418 207.378 179.298 206.402C179.185 205.493 178.502 204.479 178.479 204.013C178.434 203.165 179.291 201.565 179.336 200.604C179.786 200.251 182.768 207.04 182.88 207.844C183.038 209.038 181.514 207.43 181.251 207.1L181.093 207.543C181.731 214.806 183.406 222.451 183.774 229.691C183.984 233.822 183.616 240.19 178.299 240.784C174.206 241.242 170.151 240.723 167.071 237.832C166.553 237.832 166.178 241.347 164.465 241.294C163.128 241.257 159.426 238.553 158.795 237.231C158.284 237.231 155.566 240.378 153.711 240.716C151.608 241.099 143.309 241.054 141.101 240.761C137.338 240.25 138.337 237.877 138.81 235.271C138.885 234.873 138.87 234.738 138.42 234.88C136.497 235.489 133.628 237.426 131.465 238.268C130.406 238.681 125.217 239.965 125.006 240.228C124.826 240.453 125.104 242.18 124.233 242.548L123.79 240.483C123.031 240.431 122.34 240.769 121.589 240.791C117.939 240.919 110.038 241.287 106.952 240.033C106.208 239.732 105.029 238.726 104.436 238.726C103.842 238.726 102.663 239.732 101.92 240.033C97.6765 241.752 82.5433 240.671 76.9406 240.761C74.9129 240.799 73.5535 241.955 72.4946 239.289C69.4604 239.867 65.848 241.129 62.7688 241.091C59.6896 241.054 56.8507 238.868 54.0569 238.11C54.4399 237.089 55.4763 237.825 56.2574 237.832C58.4053 237.847 60.5608 237.847 62.7087 237.757C65.9306 235.294 66.4263 234.009 66.1784 229.976C65.6828 221.753 62.5885 213.296 61.447 205.147C61.2817 203.976 61.7699 203.15 62.0328 202.068C63.8052 204.036 64.9693 206.544 65.8705 209.015C65.2547 209.466 64.6914 208.257 64.2483 207.979C64.0155 207.934 64.0756 208.242 64.0981 208.422C64.9392 214.332 67.0947 220.844 67.6054 226.784C67.7856 228.857 67.5078 230.765 67.35 232.8C71.1502 229.819 74.5223 225.395 79.9222 227.167C82.3706 227.971 84.4434 229.879 83.2568 232.605C83.0165 233.161 81.2891 235.549 80.8385 235.947C80.2377 236.48 79.2839 236.63 78.8708 237.231H100.59C100.741 237.231 102.896 236.48 102.979 236.36C101.537 233.829 103.722 226.687 106.854 226.649C109.685 228.384 109.768 234.002 107.245 236.195C107.245 236.473 109.197 237.231 109.453 237.231H122.303V237.246ZM65.2772 237.539C70.8498 236.683 77.1284 235.984 81.8223 232.665C75.8291 226.236 69.5505 232.823 65.2772 237.539ZM137.376 231.936C133.125 231.313 129.235 229.345 124.811 229.856C124.075 229.939 123.722 230.096 123.181 230.592C121.011 232.575 123.895 234.4 124.113 236.63C127.898 236.172 133.778 234.685 137 232.597C137.286 232.41 137.526 232.627 137.383 231.936H137.376ZM105.975 230.194C103.745 230.532 102.821 234.017 105.314 235.106L107.838 232.657C107.733 231.764 107.057 230.029 105.975 230.194ZM164.555 237.246C164.465 235.316 162.828 234.167 161.011 234.888C160.688 235.196 164.293 237.524 164.555 237.246Z" fill="#14452F"/>
<path d="M192.921 209.766L191.299 208.587L194.123 234.73C193.793 236.931 194.176 240.198 192.336 241.685C192.433 232.132 190.698 222.654 189.677 213.168C189.489 211.448 189.617 209.27 189.354 207.581C188.956 204.997 188.032 205.613 189.241 202.391C189.354 202.098 189.294 201.572 189.677 201.94C189.97 202.226 191.577 205.823 191.885 206.537C192.095 207.04 193.154 209.488 192.929 209.774L192.921 209.766Z" fill="#14452F"/>
<path d="M167.439 203.931C167.995 204.975 167.95 206.289 167.537 207.371L168.851 208.302L168.686 209.766L166.621 209.308C165.494 210.923 164.225 212.425 162.783 213.754C161.514 214.926 159.479 216.819 157.759 216.849C160.485 214.107 163.895 211.997 166.027 208.723C165.682 208.182 164.916 208.242 164.54 207.776C162.933 205.801 165.96 202.436 167.439 203.923V203.931Z" fill="#14452F"/>
<path d="M73.5535 213.904C75.8216 215.489 79.1186 215.624 76.505 219.094C75.769 219.484 73.4558 218.035 72.7949 217.449L73.5535 213.912V213.904Z" fill="#14452F"/>
<path d="M105.705 221.34C106.14 222.038 105.509 224.043 105.134 224.817C101.529 224.194 101.589 222.902 102.798 219.815L105.697 221.34H105.705Z" fill="#14452F"/>
<defs>
<clipPath id="clip0_95_844">
<rect width="95.98" height="176.182" fill="white" transform="translate(76 22.7325)"/>
</clipPath>
</defs>
</svg>
